<?xml version="1.0" encoding="utf-8"?>
<!-- Generator: Adobe Illustrator 22.1.0, SVG Export Plug-In . SVG Version: 6.00 Build 0)  -->
<svg version="1.1" id="Слой_1" xmlns="http://www.w3.org/2000/svg" xmlns:xlink="http://www.w3.org/1999/xlink" x="0px" y="0px"
	 viewBox="0 0 512 512" style="enable-background:new 0 0 512 512;" xml:space="preserve">
<style type="text/css">
	.st0{fill:#FFFFFF;}
</style>
<path class="st0" d="M357.2,107.4c-26.4-26.7-61.6-41.7-99.1-42.2c-38.1-0.5-74.1,14-101.4,40.9c-27.3,26.9-42.4,62.6-42.5,100.6
	c-0.1,41.2,17.6,80.3,48.6,107.4c22.5,19.6,35.4,47.5,35.4,76.5v71.6c0,27.4,22.3,49.7,49.7,49.7h16.7c27.4,0,49.7-22.3,49.7-49.7
	v-70.7c0-29.8,12.6-57.9,34.7-76.9c31.3-27,49.3-66.2,49.3-107.6C398.2,169.6,383.6,134.1,357.2,107.4z M256,279.2h-6.6
	c-3.6,0-6.6-2.9-6.6-6.6c0-3.6,2.9-6.6,6.6-6.6c3.7,0,6.6,3,6.6,6.6V279.2z M256.2,338.6c5.5,0,10,4.5,10,10v34h-20v-34
	C246.2,343.1,250.7,338.6,256.2,338.6z M294.2,402.6v14.7h-76v-14.7H294.2z M218.2,437.3h76V452h-76V437.3z M264.5,492h-16.7
	c-13,0-24-8.4-28-20h72.8C288.5,483.6,277.5,492,264.5,492z M335.8,299.6c-24.2,20.9-39,50.7-41.3,83h-8.3v-34
	c0-8.9-3.9-17-10.1-22.5c0,0,0-0.1,0-0.1v-32.9c8.1-5.8,13.5-15.4,13.5-26.2v-15.5c0-21.3-17.3-38.6-38.6-38.6h-18
	c-5.5,0-10,4.5-10,10s4.5,10,10,10h18c10.3,0,18.6,8.4,18.6,18.6v3.7c-4.9-5.6-12.1-9.2-20.1-9.2c-14.7,0-26.6,11.9-26.6,26.6
	c0,14.7,11.9,26.6,26.6,26.6h6.6v19.4c-16.5,0.1-29.9,13.5-29.9,30v34h-8.3c-2.2-31.8-17.2-61.9-41.9-83.5
	c-26.7-23.3-41.9-56.9-41.8-92.3c0.1-32.7,13.1-63.4,36.5-86.5c23.5-23.1,54.4-35.6,87.1-35.2c66.4,0.9,120.4,55.6,120.4,122
	C378.2,242.7,362.7,276.4,335.8,299.6z"/>
<path class="st0" d="M258.2,113.8H258c-5.5-0.1-10,4.4-10.1,9.9c-0.1,5.5,4.4,10.1,9.9,10.1h0.2h0.1c5.5,0,9.9-4.4,9.9-9.9
	C268.2,118.4,263.7,113.9,258.2,113.8z"/>
<path class="st0" d="M302.2,125.6c-4.8-2.7-10.9-1-13.6,3.9c-2.7,4.8-1,10.9,3.9,13.6c23.3,13,37.7,37.5,37.7,64.1
	c0,5.5,4.5,10,10,10s10-4.5,10-10C350.2,173.3,331.8,142,302.2,125.6z"/>
<path class="st0" d="M256.2,47c5.5,0,10-4.5,10-10V10c0-5.5-4.5-10-10-10s-10,4.5-10,10v27C246.2,42.5,250.6,47,256.2,47z"/>
<path class="st0" d="M453.3,197.2h-27c-5.5,0-10,4.5-10,10s4.5,10,10,10h27c5.5,0,10-4.5,10-10S458.9,197.2,453.3,197.2z"/>
<path class="st0" d="M86,197.2H59c-5.5,0-10,4.5-10,10s4.5,10,10,10h27c5.5,0,10-4.5,10-10S91.5,197.2,86,197.2z"/>
<path class="st0" d="M383.6,320.4c-3.9-3.9-10.2-3.9-14.1,0c-3.9,3.9-3.9,10.2,0,14.1l19.1,19.1c2,1.9,4.5,2.9,7.1,2.9
	s5.1-1,7.1-2.9c3.9-3.9,3.9-10.2,0-14.1L383.6,320.4z"/>
<path class="st0" d="M128.8,93.9c2,2,4.5,2.9,7.1,2.9s5.1-1,7.1-2.9c3.9-3.9,3.9-10.2,0-14.1l-19.1-19.1c-3.9-3.9-10.2-3.9-14.1,0
	c-3.9,3.9-3.9,10.2,0,14.1L128.8,93.9z"/>
<path class="st0" d="M388.5,60.7l-19.1,19.1c-3.9,3.9-3.9,10.2,0,14.1c2,2,4.5,2.9,7.1,2.9s5.1-1,7.1-2.9l19.1-19.1
	c3.9-3.9,3.9-10.2,0-14.1C398.8,56.8,392.4,56.8,388.5,60.7z"/>
<path class="st0" d="M128.8,320.4l-19.1,19.1c-3.9,3.9-3.9,10.2,0,14.1c2,1.9,4.5,2.9,7.1,2.9s5.1-1,7.1-2.9l19.1-19.1
	c3.9-3.9,3.9-10.2,0-14.1C139,316.5,132.7,316.5,128.8,320.4z"/>
</svg>
