<?xml version="1.0" encoding="utf-8"?>
<!-- Generator: Adobe Illustrator 22.1.0, SVG Export Plug-In . SVG Version: 6.00 Build 0)  -->
<svg version="1.1" id="Capa_1" xmlns="http://www.w3.org/2000/svg" xmlns:xlink="http://www.w3.org/1999/xlink" x="0px" y="0px"
	 viewBox="0 0 350 350" style="enable-background:new 0 0 350 350;" xml:space="preserve">
<style type="text/css">
	.st0{fill:#182978;}
</style>
<g>
	<path class="st0" d="M172,160.8c36.6,0,66.2-36,66.2-80.4C238.2,36,228.4,0,172,0s-66.2,36-66.2,80.4
		C105.8,124.8,135.4,160.8,172,160.8z"/>
	<path class="st0" d="M47,283.5C46.9,280.8,46.9,282.8,47,283.5L47,283.5z"/>
	<path class="st0" d="M297,285.6C297,284.9,297,280.5,297,285.6L297,285.6z"/>
	<path class="st0" d="M296.8,280.3c-1.2-77.3-11.3-99.4-88.6-113.3c0,0-10.9,13.9-36.2,13.9S135.7,167,135.7,167
		c-76.5,13.8-87.2,35.5-88.6,110.8c-0.1,6.1-0.2,6.5-0.2,5.8c0,1.3,0,3.8,0,8.1c0,0,18.4,37.1,125,37.1c106.6,0,125-37.1,125-37.1
		c0-2.8,0-4.7,0-6C297,286.1,296.9,285.2,296.8,280.3z"/>
</g>
</svg>
