<?xml version="1.0" encoding="utf-8"?>
<!-- Generator: Adobe Illustrator 22.1.0, SVG Export Plug-In . SVG Version: 6.00 Build 0)  -->
<svg version="1.1" id="Слой_1" xmlns="http://www.w3.org/2000/svg" xmlns:xlink="http://www.w3.org/1999/xlink" x="0px" y="0px"
	 viewBox="0 0 412 412" style="enable-background:new 0 0 412 412;" xml:space="preserve">
<style type="text/css">
	.st0{fill:#FFFFFF;}
</style>
<path class="st0" d="M393.2,339.1c-5.3-17-14.6-32.5-27.2-45.1L100.7,28.7c-3.9-3.9-10.2-3.9-14.1,0l-1.5,1.5l-21-21.2
	C58.5,3.2,50.8,0,42.8,0S27.1,3.2,21.4,8.9L9.1,21.4C-2.4,33.1-2.3,52,9.3,63.6l21.1,21.1l-7.8,7.7c-9.5,9.3-14.8,22.1-14.8,35.4
	c0,13.3,5.2,26,14.6,35.4l79.9,79.9c3.9,3.9,10.2,3.9,14.1,0c3.9-3.9,3.9-10.2,0-14.1l-79.9-79.9c-11.4-11.4-11.7-29.9-0.7-41.7
	l119.6,119.6l21.8,21.8l14.1,14.1l102.8,102.8c12.6,12.6,28.1,21.9,45.1,27.2l59.9,18.6c3.5,1.1,7.4,0.1,10-2.5
	c2.6-2.6,3.6-6.5,2.5-10L393.2,339.1z M23.4,35.4l12.3-12.5c1.9-1.9,4.4-3,7.1-3s5.2,1.1,7.1,3l21.1,21.3L44.6,70.6L23.4,49.5
	C19.5,45.6,19.5,39.3,23.4,35.4z M50.1,93.4l43.5-43.5l106,106l-43.5,43.5L50.1,93.4z M170.2,213.5l43.5-43.5l21.2,21.2l-43.5,43.5
	L170.2,213.5z M205.5,248.8l43.5-43.5l102.8,102.8c1,1,2,2.1,3,3.2l-43.3,43.3c-1.1-1-2.2-2-3.2-3L205.5,248.8z M345.3,373.9
	c-6-1.9-11.8-4.4-17.3-7.4l38.7-38.7c3.1,5.5,5.6,11.3,7.4,17.3l13,41.8L345.3,373.9z"/>
</svg>
