<?xml version="1.0" encoding="utf-8"?>
<!-- Generator: Adobe Illustrator 22.1.0, SVG Export Plug-In . SVG Version: 6.00 Build 0)  -->
<svg version="1.1" id="Capa_1" xmlns="http://www.w3.org/2000/svg" xmlns:xlink="http://www.w3.org/1999/xlink" x="0px" y="0px"
	 viewBox="0 0 508.5 508.5" style="enable-background:new 0 0 508.5 508.5;" xml:space="preserve">
<style type="text/css">
	.st0{fill:#FFFFFF;}
</style>
<g>
	<g>
		<g>
			<path class="st0" d="M485.6,190.2L485.6,190.2c-11.6-15.9-29.3-32.3-50.8-33.1c-11.8-0.7-23.4,3.4-32.2,11.4s-13.9,19.1-14.3,31
				c0,8.6,2.7,17,7.7,24c6,6.7,13.3,12.2,21.5,15.9c38.9,23.1,68.6,67.9,53,112.1c0.9-2.6,5-5.8,6.8-8c2.1-2.6,4.1-5.2,6-7.9
				c3.7-5.2,7.2-10.5,10.3-16.1c1.8-3.2,3.4-6.5,4.9-9.8c2.5-5.7,4.6-11.6,6.2-17.6C513.5,256.9,506.6,219.7,485.6,190.2z"/>
			<path class="st0" d="M105.9,340c8.7-8,13.9-19.1,14.3-30.9c0-8.6-2.7-17-7.7-24c-6-6.7-13.3-12.1-21.5-15.8
				C52,246.1,22.4,201.3,38,157.1c-0.9,2.6-5,5.8-6.8,8c-2.1,2.6-4.1,5.2-6,7.9c-3.8,5.2-7.2,10.5-10.3,16.1
				c-1.8,3.2-3.4,6.5-4.9,9.8c-2.5,5.7-4.6,11.6-6.2,17.6c-8.8,35.1-1.8,72.3,19.1,101.8c11.6,15.8,29.4,32.2,50.8,33
				C85.5,352,97.1,348,105.9,340z"/>
			<path class="st0" d="M298.5,116c8.8-1.8,17.1-5.5,24.5-10.7c39.5-22.2,93.1-25.4,123.6,10.1c-1.6-3.1-2.8-6.4-3.5-9.9
				c-1.2-3.1-2.4-6.2-3.8-9.2c-2.6-5.8-5.6-11.5-8.8-16.9c-1.9-3.1-3.9-6.2-6-9.2c-3.6-5-7.7-9.8-12.1-14.2
				c-26-25.2-61.7-37.7-97.7-34.3c-19.5,2.1-42.6,9.3-54,27.6c-6.5,9.9-8.8,22-6.3,33.5c2.5,11.6,9.6,21.6,19.6,27.9
				C281.3,115,289.9,116.8,298.5,116z"/>
			<path class="st0" d="M234.7,397.7c-7.5-4.3-16.1-6.1-24.6-5.3c-8.8,1.8-17.1,5.5-24.5,10.7C146.1,425.3,92.5,428.6,62,393
				c1.6,3.1,2.8,6.4,3.5,9.9c1.2,3.1,2.5,6.2,3.8,9.2c2.6,5.8,5.6,11.5,8.8,16.9c1.9,3.1,3.9,6.2,6,9.2c3.6,5,7.7,9.8,12.1,14.2
				c26,25.2,61.7,37.7,97.7,34.4c19.5-2.1,42.6-9.3,54-27.6c6.5-9.9,8.8-22,6.3-33.5C251.8,414,244.7,404,234.7,397.7z"/>
			<path class="st0" d="M105.8,168.6c11.3,3.6,23.5,2.5,34-3.1c7.4-4.3,13.3-10.9,16.9-18.7c2.8-8.5,3.8-17.6,3-26.5
				C160.1,75,184.1,27,230.2,18.3c-3.5-0.2-7-0.8-10.3-1.9c-3.3-0.5-6.6-0.9-9.9-1.3c-6.3-0.7-12.7-1-19.1-0.9
				c-3.7,0.1-7.3,0.3-10.9,0.6c-6.2,0.6-12.3,1.8-18.3,3.4C126.8,28.3,98.1,52.9,83,85.8v0c-7.9,18-13.2,41.6-3.1,60.6
				C85.2,157,94.5,165,105.8,168.6z"/>
			<path class="st0" d="M402.7,339.9c-11.3-3.6-23.5-2.5-34,3.1c-7.4,4.3-13.3,10.9-16.9,18.7c-2.8,8.5-3.8,17.6-3,26.5
				c-0.5,45.3-24.5,93.3-70.6,102c3.5,0.2,7,0.8,10.3,1.9c3.3,0.5,6.6,0.9,9.9,1.3c6.3,0.7,12.7,1,19.1,0.9
				c3.7-0.1,7.3-0.3,10.9-0.6c6.2-0.6,12.3-1.8,18.3-3.4c34.8-9.9,63.5-34.6,78.6-67.5c7.9-18,13.2-41.6,3.1-60.6
				C423.3,351.5,414,343.5,402.7,339.9z"/>
		</g>
	</g>
</g>
</svg>
